<?xml version="1.0" encoding="UTF-8" standalone="no"?>
<svg
    width="300"
    height="70"
    viewBox="0 0 300 70"
    version="1.1"
    id="svg1"
    xmlns="http://www.w3.org/2000/svg"
    xmlns:svg="http://www.w3.org/2000/svg"
>
    <path
        id="N"
        fill="#fff"
        d="m 247.23526,69.027476 q -1.07483,0 -1.75882,-0.680552 -0.68399,-0.680551 -0.68399,-1.74999 V 3.4028762 q 0,-1.0694373 0.68399,-1.7499884 0.68399,-0.68055344 1.75882,-0.68055344 h 8.89184 q 1.46569,0 2.14968,0.68055344 0.68398,0.6805511 0.8794,1.0694372 l 26.08924,40.541418 V 3.4028762 q 0,-1.0694373 0.68397,-1.7499884 0.684,-0.68055344 1.66114,-0.68055344 h 9.96666 q 1.07483,0 1.75882,0.68055344 Q 300,2.3334389 300,3.4028762 V 66.596934 q 0,0.972216 -0.68399,1.74999 -0.68399,0.680552 -1.75882,0.680552 h -8.98954 q -1.4657,0 -2.14968,-0.680552 -0.58629,-0.777774 -0.87941,-1.069436 l -25.99154,-39.27754 v 38.596986 q 0,1.069439 -0.68398,1.74999 -0.68397,0.680552 -1.75882,0.680552 z"
    />
    <path
        id="E"
        fill="#fff"
        d="m 185.67645,69.027476 q -1.07482,0 -1.75881,-0.680552 -0.68399,-0.680551 -0.68399,-1.74999 V 3.4028762 q 0,-1.0694373 0.68399,-1.7499884 0.68399,-0.68055344 1.75881,-0.68055344 h 44.26377 q 1.07484,0 1.75884,0.68055344 0.68398,0.6805511 0.68398,1.7499884 v 7.7777298 q 0,0.972216 -0.68398,1.652768 -0.684,0.680551 -1.75884,0.680551 H 198.28138 V 28.77772 h 29.50919 q 1.07482,0 1.75881,0.680554 0.68399,0.680551 0.68399,1.749988 v 7.194399 q 0,0.972218 -0.68399,1.652768 -0.68399,0.680552 -1.75881,0.680552 h -29.50919 v 15.749904 h 32.44054 q 1.07484,0 1.75884,0.680551 0.68398,0.680551 0.68398,1.749991 v 7.680507 q 0,1.069439 -0.68398,1.74999 -0.684,0.680552 -1.75884,0.680552 z"
    />
    <path
        id="S"
        fill="#fff"
        d="m 143.5624,0 c -5.40673,0 -10.0645,0.87525194 -13.97299,2.6252381 -3.90849,1.685169 -6.93742,4.0512391 -9.08707,7.0975127 -2.14968,2.9814572 -3.2243,6.4167522 -3.2243,10.3056082 0,2.894119 0.47681,5.440906 1.41624,7.65185 0.17057,0.385571 0.45055,0.751083 0.83021,1.004319 l 14.91381,10.016365 c 0.1705,0.12051 0.47879,0.256978 0.65758,0.305669 1.56434,0.449048 3.19554,0.871823 4.94855,1.243914 4.03877,0.972215 7.26421,1.87953 9.67447,2.722117 2.47537,0.842585 4.26535,1.781964 5.37275,2.818995 1.17253,1.037026 1.75899,2.398001 1.75899,4.083173 0,2.333315 -1.07462,4.18001 -3.2243,5.541112 -2.08451,1.361098 -5.24393,2.04238 -9.47814,2.04238 -2.60566,0 -4.78713,-0.323812 -6.54594,-0.971957 -1.76531,-0.620467 -3.48466,-2.003988 -4.88913,-3.184969 -0.61271,-0.521969 -1.66248,-0.83809 -2.76298,-0.227999 0,0 -6.26505,4.210986 -9.14382,6.144399 -0.77563,0.564116 -1.08255,1.941255 -0.24372,2.853015 1.95141,1.87521 4.85658,3.902543 7.8536,5.207143 C 132.65041,69.092683 137.89466,70 144.1482,70 c 5.66734,0 10.61831,-0.811125 14.85251,-2.431482 4.29935,-1.685173 7.65369,-4.083304 10.06395,-7.194393 2.47537,-3.111084 3.71431,-6.836541 3.71431,-11.179098 0,-3.888857 -0.84746,-7.098116 -2.54111,-9.625875 -1.69369,-2.592569 -4.33271,-4.698956 -7.91551,-6.319312 -3.58275,-1.620355 -8.23891,-3.013392 -13.97138,-4.180053 -3.71308,-0.972211 -6.70975,-1.847463 -8.98971,-2.625238 -2.21483,-0.842584 -3.81143,-1.781966 -4.78857,-2.818995 -0.91198,-1.101842 -1.36793,-2.430752 -1.36793,-3.986293 0,-2.39813 0.91191,-4.180699 2.73586,-5.347357 1.8891,-1.166656 4.42984,-1.750159 7.62178,-1.750159 3.06165,0 5.53635,0.647631 7.42547,1.943915 1.95418,1.231475 3.12714,2.690225 3.51798,4.375399 0.32572,0.64814 0.74942,1.1018 1.27056,1.361057 0.52114,0.259257 1.10758,0.389102 1.75899,0.389102 h 10.94345 c 0.58626,0 1.07444,-0.193972 1.4653,-0.582859 0.39084,-0.4537 0.58738,-0.941009 0.58738,-1.459524 -0.0651,-2.009242 -0.68381,-4.081974 -1.85635,-6.220847 -1.17256,-2.138869 -2.89967,-4.1490609 -5.17963,-6.0286765 -2.21479,-1.8796132 -5.01653,-3.402497 -8.4039,-4.5691529 C 151.76942,0.58349826 147.92688,0 143.5624,0 Z"
    />
    <path
        id="R"
        fill="#fff"
        d="m 2.4437422,0.97195738 c -0.7165593,0 -1.302999,0.22762252 -1.75899954,0.68132332 C 0.2287649,2.1069814 0,2.690482 0,3.4034393 V 66.596562 c 0,0.712957 0.2287649,1.296457 0.68474266,1.750157 0.45600054,0.4537 1.04244024,0.681324 1.75899954,0.681324 H 13.093486 c 0.71656,0 1.303,-0.227624 1.759,-0.681324 0.456001,-0.4537 0.684766,-1.0372 0.684766,-1.750157 V 44.138307 h 11.822943 l 11.920288,22.264498 c 0.260558,0.518513 0.684309,1.102014 1.270566,1.750159 0.58628,0.583327 1.465939,0.875079 2.638499,0.875079 h 10.846076 c 0.586257,0 1.07444,-0.195559 1.465301,-0.584445 0.390838,-0.4537 0.5858,-0.939422 0.5858,-1.457937 0,-0.324072 -0.09668,-0.67995 -0.292101,-1.068836 L 52.926606,60.857433 C 52.715119,60.497346 52.544921,60.319984 52.205277,60.072437 L 40.408627,52.143022 C 39.788819,51.697671 38.931754,50.969911 38.307633,50.21401 37.205576,49.027151 36.745741,47.057556 36.745741,45.558127 v -2.355249 c 0,-1.477786 0.458648,-3.532399 1.985664,-5.098013 0.628459,-0.672546 1.292614,-1.223416 1.667864,-1.482023 0.01484,-0.01045 9.978399,-6.706046 12.95878,-8.708889 0.528535,-0.34553 0.923595,-0.959385 1.011444,-1.628635 0.16584,-1.155245 0.251932,-2.364807 0.251932,-3.633307 0,-6.999952 -2.344207,-12.346059 -7.034401,-16.0404758 C 42.89683,2.852302 36.47975,0.97195738 28.337061,0.97195738 Z M 15.537252,13.124603 h 12.50611 c 3.647914,0 6.319166,0.843186 8.012843,2.52836 1.693677,1.685174 2.541109,3.985523 2.541109,6.902169 0,2.916647 -0.879659,5.184933 -2.638476,6.805292 -1.693677,1.620359 -4.332701,2.431481 -7.915476,2.431481 h -12.50611 z"
        />
    <path
        id="right"
        fill="#7a62de"
        d="m 104.75438,25.566295 c -0.61917,-0.01828 -1.18596,0.459591 -1.18596,1.202242 v 9.084307 c 0,0.747721 0.20758,1.289809 0.6209,1.626284 0.45088,0.336479 0.8446,0.599213 1.18279,0.78614 l 9.82132,6.141438 -9.82132,6.141438 c -0.33819,0.186928 -0.73191,0.449659 -1.18279,0.786141 -0.41332,0.336475 -0.6209,0.878563 -0.6209,1.626284 v 9.084308 c 0,0.990199 1.00813,1.509812 1.80369,1.010075 l 22.54608,-15.141577 c 0.52606,-0.33647 0.91977,-0.655395 1.18279,-0.954487 0.30061,-0.336472 0.45171,-0.802579 0.45171,-1.400761 v -1.151421 -1.15142 c 0,-0.598182 -0.1511,-1.06429 -0.45171,-1.400762 -0.26302,-0.299091 -0.65673,-0.618016 -1.18279,-0.95449 L 105.37211,25.758461 c -0.1989,-0.124933 -0.41134,-0.186077 -0.61773,-0.192166 z"
    />
    <path
        id="left"
        fill="#7a62de"
        d="m 66.978998,25.513139 c 0.619169,-0.01828 1.185957,0.459592 1.185957,1.202242 v 9.084306 c 0,0.747722 -0.207584,1.289809 -0.620904,1.626285 -0.450888,0.33648 -0.844602,0.599212 -1.182785,0.78614 l -9.821324,6.141439 9.821324,6.141438 c 0.338183,0.186927 0.731897,0.449658 1.182785,0.78614 0.41332,0.336476 0.620904,0.878564 0.620904,1.626284 v 9.084308 c 0,0.990199 -1.008136,1.509812 -1.803689,1.010075 L 43.815176,47.86022 c -0.526047,-0.336471 -0.919761,-0.655396 -1.182785,-0.954488 -0.300614,-0.336472 -0.45171,-0.802579 -0.45171,-1.400761 v -1.15142 -1.15142 c 0,-0.598182 0.151096,-1.064289 0.45171,-1.400762 0.263024,-0.299091 0.656738,-0.618017 1.182785,-0.954489 l 22.54609,-15.141574 c 0.198888,-0.124933 0.411334,-0.186079 0.617732,-0.192167 z"
    />
    <path
        id="body"
        fill="#fff"
        d="m 93.792741,18.859405 c -2.275416,1.93074 -5.154617,3.071577 -8.304306,3.071577 -3.133004,0 -6.0175,-1.159076 -8.287392,-3.071513 h -1.15405 c -1.367408,0 -2.467684,1.13127 -2.467684,2.536301 v 21.410066 c 0,1.40503 1.100276,2.5363 2.467684,2.5363 h 1.856367 v 21.675288 c 0,1.306391 1.022309,2.358429 2.29372,2.358429 h 11.337683 c 1.27141,0 2.295318,-1.052038 2.295318,-2.358429 V 45.342136 h 1.854769 c 1.367431,0 2.469303,-1.13127 2.469303,-2.5363 V 21.39577 c 0,-1.405031 -1.101872,-2.536301 -2.469303,-2.536301 -0.630696,2.4e-5 -1.261414,-4e-6 -1.892109,-6.4e-5 z"
    />
    <path
        id="head"
        fill="#fff"
        d="m 93.35194,8.2470958 c 0,4.5223872 -3.5206,8.1885092 -7.863505,8.1885092 -4.342903,0 -7.863528,-3.666122 -7.863528,-8.1885092 0,-4.5223874 3.520625,-8.18850798 7.863528,-8.18850798 4.342905,0 7.863505,3.66612058 7.863505,8.18850798 z"
    />
</svg>