<?xml version="1.0" encoding="UTF-8" standalone="no"?>
<!-- Created with Inkscape (http://www.inkscape.org/) -->

<svg
   width="48"
   height="48"
   viewBox="0 0 48 48"
   version="1.1"
   id="svg1"
   xmlns="http://www.w3.org/2000/svg"
   xmlns:svg="http://www.w3.org/2000/svg">
  <defs
     id="defs1" />
  <g
     id="layer1">
    <g
       id="g59"
       transform="matrix(2.0366724,0,0,2.0366724,-68.436433,-342.70759)">
      <path
         id="path36-4-8-4"
         style="color:#000000;-inkscape-font-specification:'Rubik Light, Heavy';display:inline;fill:#c574d8;fill-opacity:1;stroke-width:0.0615658;stroke-linecap:round;stroke-linejoin:round;-inkscape-stroke:none;paint-order:stroke fill markers"
         d="m 50.480803,177.57147 c -0.167016,-0.005 -0.319902,0.1246 -0.319902,0.32594 v 2.46278 c 0,0.20271 0.05599,0.34967 0.167483,0.44089 0.121624,0.0912 0.227824,0.16245 0.319046,0.21313 l 2.649219,1.66496 -2.649219,1.66497 c -0.09122,0.0507 -0.197422,0.1219 -0.319046,0.21312 -0.111489,0.0912 -0.167483,0.23818 -0.167483,0.44089 v 2.46279 c 0,0.26845 0.271936,0.40932 0.486529,0.27384 l 6.081616,-4.10494 c 0.141897,-0.0912 0.248098,-0.17768 0.319046,-0.25876 0.08109,-0.0912 0.121845,-0.21758 0.121845,-0.37975 v -0.31216 -0.31215 c 0,-0.16217 -0.04076,-0.28853 -0.121845,-0.37975 -0.07095,-0.0811 -0.177149,-0.16755 -0.319046,-0.25877 l -6.081616,-4.10493 c -0.05365,-0.0339 -0.110953,-0.0505 -0.166627,-0.0521 z" />
      <path
         id="path37-5-0-3"
         style="color:#000000;-inkscape-font-specification:'Rubik Light, Heavy';display:inline;fill:#c574d8;fill-opacity:1;stroke-width:0.0615658;stroke-linecap:round;stroke-linejoin:round;-inkscape-stroke:none;paint-order:stroke fill markers"
         d="m 40.291217,177.55706 c 0.167015,-0.005 0.319902,0.1246 0.319902,0.32594 v 2.46278 c 0,0.20271 -0.05599,0.34967 -0.167484,0.44089 -0.121623,0.0912 -0.227824,0.16245 -0.319046,0.21313 l -2.649219,1.66496 2.649219,1.66497 c 0.09122,0.0507 0.197423,0.1219 0.319046,0.21312 0.11149,0.0912 0.167484,0.23818 0.167484,0.44089 v 2.46279 c 0,0.26845 -0.271936,0.40932 -0.48653,0.27383 l -6.081616,-4.10493 c -0.141896,-0.0912 -0.248097,-0.17768 -0.319046,-0.25876 -0.08109,-0.0912 -0.121845,-0.21758 -0.121845,-0.37975 v -0.31216 -0.31215 c 0,-0.16217 0.04076,-0.28853 0.121845,-0.37975 0.07095,-0.0811 0.17715,-0.16755 0.319046,-0.25877 l 6.081616,-4.10493 c 0.05365,-0.0339 0.110954,-0.0505 0.166628,-0.0521 z" />
      <path
         id="path38-2-2-5"
         style="fill:#6f2484;fill-opacity:1;stroke:none;stroke-width:0.0536004;stroke-linecap:round;stroke-linejoin:round"
         d="m 47.523995,175.75321 c -0.613774,0.52343 -1.390414,0.83272 -2.240015,0.83272 -0.845101,0 -1.62317,-0.31423 -2.235454,-0.8327 h -0.311295 c -0.368846,0 -0.665637,0.30669 -0.665637,0.6876 v 5.80434 c 0,0.38091 0.296791,0.6876 0.665637,0.6876 h 0.500739 v 5.87625 c 0,0.35416 0.27576,0.63937 0.618712,0.63937 h 3.058243 c 0.342952,0 0.619142,-0.28521 0.619142,-0.63937 v -5.87625 h 0.500309 c 0.368853,0 0.666074,-0.30669 0.666074,-0.6876 v -5.80434 c 0,-0.38091 -0.297221,-0.6876 -0.666074,-0.6876 -0.170125,1e-5 -0.340256,0 -0.510381,-2e-5 z" />
      <path
         id="path39-9-2-4"
         style="display:inline;fill:#6f2484;fill-opacity:1;stroke:none;stroke-width:0;stroke-linecap:round;stroke-linejoin:round;stroke-dasharray:none;stroke-opacity:1;paint-order:stroke fill markers"
         d="m 47.405093,172.87618 c 0,1.22604 -0.949652,2.21993 -2.121113,2.21993 -1.171462,0 -2.12112,-0.99389 -2.12112,-2.21993 0,-1.22603 0.949658,-2.21993 2.12112,-2.21993 1.171461,0 2.121113,0.9939 2.121113,2.21993 z" />
    </g>
  </g>
</svg>
