<?xml version="1.0" encoding="UTF-8" standalone="no"?>
<svg
    width="48"
    height="48"
    viewBox="0 0 48 48"
    version="1.1"
    id="svg1"
    xmlns="http://www.w3.org/2000/svg"
    xmlns:svg="http://www.w3.org/2000/svg"
>
<g
    id="group"
    transform="translate(0, 4.97) scale(0.5494) translate(-42.181, -0.059)"
>
    <path
        id="right"
        fill="#7a62de"
        d="m 104.75438,25.566295 c -0.61917,-0.01828 -1.18596,0.459591 -1.18596,1.202242 v 9.084307 c 0,0.747721 0.20758,1.289809 0.6209,1.626284 0.45088,0.336479 0.8446,0.599213 1.18279,0.78614 l 9.82132,6.141438 -14.14539,8.93989 c -0.33819,0.186928 -0.73191,0.449659 -1.182793,0.786141 -0.41332,0.336475 -0.6209,0.878563 -0.6209,1.626284 v 9.084308 c 0,0.990199 1.008133,1.509812 1.803693,1.010075 l 26.87015,-17.940029 c 0.52606,-0.33647 0.91977,-0.655395 1.18279,-0.954487 0.30061,-0.336472 0.45171,-0.802579 0.45171,-1.400761 v -1.151421 -1.15142 c 0,-0.598182 -0.1511,-1.06429 -0.45171,-1.400762 -0.26302,-0.299091 -0.65673,-0.618016 -1.18279,-0.95449 L 105.37211,25.758461 c -0.1989,-0.124933 -0.41134,-0.186077 -0.61773,-0.192166 z"
    />
    <path
        id="left"
        fill="#7a62de"
        d="m 66.978986,25.513141 c 0.61917,-0.01828 1.18596,0.459591 1.18596,1.202242 v 9.084307 c 0,0.747721 -0.20758,1.289809 -0.6209,1.626284 -0.45088,0.336479 -0.8446,0.599213 -1.18279,0.78614 l -9.82132,6.141438 14.14539,8.93989 c 0.33819,0.186928 0.73191,0.449659 1.18279,0.786141 0.41332,0.336475 0.6209,0.878563 0.6209,1.626284 v 9.084308 c 0,0.990199 -1.00813,1.509812 -1.80369,1.010075 L 43.815176,47.860221 c -0.52606,-0.33647 -0.91977,-0.655395 -1.18279,-0.954487 -0.30061,-0.336472 -0.45171,-0.802579 -0.45171,-1.400761 v -1.151421 -1.15142 c 0,-0.598182 0.1511,-1.06429 0.45171,-1.400762 0.26302,-0.299091 0.65673,-0.618016 1.18279,-0.95449 l 22.54608,-15.141573 c 0.1989,-0.124933 0.41134,-0.186077 0.61773,-0.192166 z"
    />
    <path
        id="body"
        fill="#2b224d"
        d="m 93.792741,18.859405 c -2.275416,1.93074 -5.154617,3.071577 -8.304306,3.071577 -3.133004,0 -6.0175,-1.159076 -8.287392,-3.071513 h -1.15405 c -1.367408,0 -2.467684,1.13127 -2.467684,2.536301 v 21.410066 c 0,1.40503 1.100276,2.5363 2.467684,2.5363 h 1.856367 v 21.675288 c 0,1.306391 1.022309,2.358429 2.29372,2.358429 h 11.337683 c 1.27141,0 2.295318,-1.052038 2.295318,-2.358429 V 45.342136 h 1.854769 c 1.367431,0 2.469303,-1.13127 2.469303,-2.5363 V 21.39577 c 0,-1.405031 -1.101872,-2.536301 -2.469303,-2.536301 -0.630696,2.4e-5 -1.261414,-4e-6 -1.892109,-6.4e-5 z"
    />
    <path
        id="head"
        fill="#2b224d"
        d="m 93.35194,8.2470958 c 0,4.5223872 -3.5206,8.1885092 -7.863505,8.1885092 -4.342903,0 -7.863528,-3.666122 -7.863528,-8.1885092 0,-4.5223874 3.520625,-8.18850798 7.863528,-8.18850798 4.342905,0 7.863505,3.66612058 7.863505,8.18850798 z"
    />
</g>
</svg>
